/* XPM */
static char * Fluxbox_xpm[] = {
"16 16 7 1",
" 	c None",
".	c #4F4F4F",
"+	c #FFFFFF",
"@	c #F9F9F9",
"#	c #FBFBFB",
"$	c #505050",
"%	c #4E4E4E",
"     ......     ",
"   ..........   ",
"  ............  ",
" .............. ",
" ........+++++. ",
"....+++++.......",
"...++@...+++++..",
"..+#+++++.......",
".$++++..........",
"..+++....+......",
"..++.+..++......",
" .+....++...... ",
" ..+++++$...... ",
"  .%..........  ",
"   ..........   ",
"     ......     "};
