/* XPM */
static char * distributor_logo_fluxbox_xpm[] = {
"128 128 7 1",
" 	c None",
".	c #4F4F4F",
"+	c #FFFFFF",
"@	c #F9F9F9",
"#	c #FBFBFB",
"$	c #505050",
"%	c #4E4E4E",
"                                        ................................................                                        ",
"                                        ................................................                                        ",
"                                        ................................................                                        ",
"                                        ................................................                                        ",
"                                        ................................................                                        ",
"                                        ................................................                                        ",
"                                        ................................................                                        ",
"                                        ................................................                                        ",
"                        ................................................................................                        ",
"                        ................................................................................                        ",
"                        ................................................................................                        ",
"                        ................................................................................                        ",
"                        ................................................................................                        ",
"                        ................................................................................                        ",
"                        ................................................................................                        ",
"                        ................................................................................                        ",
"                ................................................................................................                ",
"                ................................................................................................                ",
"                ................................................................................................                ",
"                ................................................................................................                ",
"                ................................................................................................                ",
"                ................................................................................................                ",
"                ................................................................................................                ",
"                ................................................................................................                ",
"        ................................................................................................................        ",
"        ................................................................................................................        ",
"        ................................................................................................................        ",
"        ................................................................................................................        ",
"        ................................................................................................................        ",
"        ................................................................................................................        ",
"        ................................................................................................................        ",
"        ................................................................................................................        ",
"        ................................................................++++++++++++++++++++++++++++++++++++++++........        ",
"        ................................................................++++++++++++++++++++++++++++++++++++++++........        ",
"        ................................................................++++++++++++++++++++++++++++++++++++++++........        ",
"        ................................................................++++++++++++++++++++++++++++++++++++++++........        ",
"        ................................................................++++++++++++++++++++++++++++++++++++++++........        ",
"        ................................................................++++++++++++++++++++++++++++++++++++++++........        ",
"        ................................................................++++++++++++++++++++++++++++++++++++++++........        ",
"        ................................................................++++++++++++++++++++++++++++++++++++++++........        ",
"................................++++++++++++++++++++++++++++++++++++++++........................................................",
"................................++++++++++++++++++++++++++++++++++++++++........................................................",
"................................++++++++++++++++++++++++++++++++++++++++........................................................",
"................................++++++++++++++++++++++++++++++++++++++++........................................................",
"................................++++++++++++++++++++++++++++++++++++++++........................................................",
"................................++++++++++++++++++++++++++++++++++++++++........................................................",
"................................++++++++++++++++++++++++++++++++++++++++........................................................",
"................................++++++++++++++++++++++++++++++++++++++++........................................................",
"........................++++++++++++++++@@@@@@@@........................++++++++++++++++++++++++++++++++++++++++................",
"........................++++++++++++++++@@@@@@@@........................++++++++++++++++++++++++++++++++++++++++................",
"........................++++++++++++++++@@@@@@@@........................++++++++++++++++++++++++++++++++++++++++................",
"........................++++++++++++++++@@@@@@@@........................++++++++++++++++++++++++++++++++++++++++................",
"........................++++++++++++++++@@@@@@@@........................++++++++++++++++++++++++++++++++++++++++................",
"........................++++++++++++++++@@@@@@@@........................++++++++++++++++++++++++++++++++++++++++................",
"........................++++++++++++++++@@@@@@@@........................++++++++++++++++++++++++++++++++++++++++................",
"........................++++++++++++++++@@@@@@@@........................++++++++++++++++++++++++++++++++++++++++................",
"................++++++++########++++++++++++++++++++++++++++++++++++++++........................................................",
"................++++++++########++++++++++++++++++++++++++++++++++++++++........................................................",
"................++++++++########++++++++++++++++++++++++++++++++++++++++........................................................",
"................++++++++########++++++++++++++++++++++++++++++++++++++++........................................................",
"................++++++++########++++++++++++++++++++++++++++++++++++++++........................................................",
"................++++++++########++++++++++++++++++++++++++++++++++++++++........................................................",
"................++++++++########++++++++++++++++++++++++++++++++++++++++........................................................",
"................++++++++########++++++++++++++++++++++++++++++++++++++++........................................................",
"........$$$$$$$$++++++++++++++++++++++++++++++++................................................................................",
"........$$$$$$$$++++++++++++++++++++++++++++++++................................................................................",
"........$$$$$$$$++++++++++++++++++++++++++++++++................................................................................",
"........$$$$$$$$++++++++++++++++++++++++++++++++................................................................................",
"........$$$$$$$$++++++++++++++++++++++++++++++++................................................................................",
"........$$$$$$$$++++++++++++++++++++++++++++++++................................................................................",
"........$$$$$$$$++++++++++++++++++++++++++++++++................................................................................",
"........$$$$$$$$++++++++++++++++++++++++++++++++................................................................................",
"................++++++++++++++++++++++++................................++++++++................................................",
"................++++++++++++++++++++++++................................++++++++................................................",
"................++++++++++++++++++++++++................................++++++++................................................",
"................++++++++++++++++++++++++................................++++++++................................................",
"................++++++++++++++++++++++++................................++++++++................................................",
"................++++++++++++++++++++++++................................++++++++................................................",
"................++++++++++++++++++++++++................................++++++++................................................",
"................++++++++++++++++++++++++................................++++++++................................................",
"................++++++++++++++++........++++++++................++++++++++++++++................................................",
"................++++++++++++++++........++++++++................++++++++++++++++................................................",
"................++++++++++++++++........++++++++................++++++++++++++++................................................",
"................++++++++++++++++........++++++++................++++++++++++++++................................................",
"................++++++++++++++++........++++++++................++++++++++++++++................................................",
"................++++++++++++++++........++++++++................++++++++++++++++................................................",
"................++++++++++++++++........++++++++................++++++++++++++++................................................",
"................++++++++++++++++........++++++++................++++++++++++++++................................................",
"        ........++++++++................................++++++++++++++++................................................        ",
"        ........++++++++................................++++++++++++++++................................................        ",
"        ........++++++++................................++++++++++++++++................................................        ",
"        ........++++++++................................++++++++++++++++................................................        ",
"        ........++++++++................................++++++++++++++++................................................        ",
"        ........++++++++................................++++++++++++++++................................................        ",
"        ........++++++++................................++++++++++++++++................................................        ",
"        ........++++++++................................++++++++++++++++................................................        ",
"        ................++++++++++++++++++++++++++++++++++++++++$$$$$$$$................................................        ",
"        ................++++++++++++++++++++++++++++++++++++++++$$$$$$$$................................................        ",
"        ................++++++++++++++++++++++++++++++++++++++++$$$$$$$$................................................        ",
"        ................++++++++++++++++++++++++++++++++++++++++$$$$$$$$................................................        ",
"        ................++++++++++++++++++++++++++++++++++++++++$$$$$$$$................................................        ",
"        ................++++++++++++++++++++++++++++++++++++++++$$$$$$$$................................................        ",
"        ................++++++++++++++++++++++++++++++++++++++++$$$$$$$$................................................        ",
"        ................++++++++++++++++++++++++++++++++++++++++$$$$$$$$................................................        ",
"                ........%%%%%%%%................................................................................                ",
"                ........%%%%%%%%................................................................................                ",
"                ........%%%%%%%%................................................................................                ",
"                ........%%%%%%%%................................................................................                ",
"                ........%%%%%%%%................................................................................                ",
"                ........%%%%%%%%................................................................................                ",
"                ........%%%%%%%%................................................................................                ",
"                ........%%%%%%%%................................................................................                ",
"                        ................................................................................                        ",
"                        ................................................................................                        ",
"                        ................................................................................                        ",
"                        ................................................................................                        ",
"                        ................................................................................                        ",
"                        ................................................................................                        ",
"                        ................................................................................                        ",
"                        ................................................................................                        ",
"                                        ................................................                                        ",
"                                        ................................................                                        ",
"                                        ................................................                                        ",
"                                        ................................................                                        ",
"                                        ................................................                                        ",
"                                        ................................................                                        ",
"                                        ................................................                                        ",
"                                        ................................................                                        "};
