/* XPM */
static char * distributor_logo_linux_xpm[] = {
"112 128 11 1",
" 	c None",
".	c #4E4E4E",
"+	c #4F4F4F",
"@	c #4C4C4C",
"#	c #FFFFFF",
"$	c #EAB108",
"%	c #EAAF0A",
"&	c #4D4D4D",
"*	c #E9B109",
"=	c #E7B00A",
"-	c #E9B008",
"                                        ................................                                        ",
"                                        ................................                                        ",
"                                        ................................                                        ",
"                                        ................................                                        ",
"                                        ................................                                        ",
"                                        ................................                                        ",
"                                        ................................                                        ",
"                                        ................................                                        ",
"                                ................++++++++++++++++................                                ",
"                                ................++++++++++++++++................                                ",
"                                ................++++++++++++++++................                                ",
"                                ................++++++++++++++++................                                ",
"                                ................++++++++++++++++................                                ",
"                                ................++++++++++++++++................                                ",
"                                ................++++++++++++++++................                                ",
"                                ................++++++++++++++++................                                ",
"                                @@@@@@@@########................########........                                ",
"                                @@@@@@@@########................########........                                ",
"                                @@@@@@@@########................########........                                ",
"                                @@@@@@@@########................########........                                ",
"                                @@@@@@@@########................########........                                ",
"                                @@@@@@@@########................########........                                ",
"                                @@@@@@@@########................########........                                ",
"                                @@@@@@@@########................########........                                ",
"                                ........########................########........                                ",
"                                ........########................########........                                ",
"                                ........########................########........                                ",
"                                ........########................########........                                ",
"                                ........########................########........                                ",
"                                ........########................########........                                ",
"                                ........########................########........                                ",
"                                ........########................########........                                ",
"                                ........................................................                        ",
"                                ........................................................                        ",
"                                ........................................................                        ",
"                                ........................................................                        ",
"                                ........................................................                        ",
"                                ........................................................                        ",
"                                ........................................................                        ",
"                                ........................................................                        ",
"                        ........................$$$$$$$$$$$$$$$$........................                        ",
"                        ........................$$$$$$$$$$$$$$$$........................                        ",
"                        ........................$$$$$$$$$$$$$$$$........................                        ",
"                        ........................$$$$$$$$$$$$$$$$........................                        ",
"                        ........................$$$$$$$$$$$$$$$$........................                        ",
"                        ........................$$$$$$$$$$$$$$$$........................                        ",
"                        ........................$$$$$$$$$$$$$$$$........................                        ",
"                        ........................$$$$$$$$$$$$$$$$........................                        ",
"                        ................$$$$$$$$%%%%%%%%$$$$$$$$$$$$$$$$++++++++........                        ",
"                        ................$$$$$$$$%%%%%%%%$$$$$$$$$$$$$$$$++++++++........                        ",
"                        ................$$$$$$$$%%%%%%%%$$$$$$$$$$$$$$$$++++++++........                        ",
"                        ................$$$$$$$$%%%%%%%%$$$$$$$$$$$$$$$$++++++++........                        ",
"                        ................$$$$$$$$%%%%%%%%$$$$$$$$$$$$$$$$++++++++........                        ",
"                        ................$$$$$$$$%%%%%%%%$$$$$$$$$$$$$$$$++++++++........                        ",
"                        ................$$$$$$$$%%%%%%%%$$$$$$$$$$$$$$$$++++++++........                        ",
"                        ................$$$$$$$$%%%%%%%%$$$$$$$$$$$$$$$$++++++++........                        ",
"                        ................########$$$$$$$$$$$$$$$$########++++++++........                        ",
"                        ................########$$$$$$$$$$$$$$$$########++++++++........                        ",
"                        ................########$$$$$$$$$$$$$$$$########++++++++........                        ",
"                        ................########$$$$$$$$$$$$$$$$########++++++++........                        ",
"                        ................########$$$$$$$$$$$$$$$$########++++++++........                        ",
"                        ................########$$$$$$$$$$$$$$$$########++++++++........                        ",
"                        ................########$$$$$$$$$$$$$$$$########++++++++........                        ",
"                        ................########$$$$$$$$$$$$$$$$########++++++++........                        ",
"                ........................################################........................                ",
"                ........................################################........................                ",
"                ........................################################........................                ",
"                ........................################################........................                ",
"                ........................################################........................                ",
"                ........................################################........................                ",
"                ........................################################........................                ",
"                ........................################################........................                ",
"                ........++++++++################################################++++++++........                ",
"                ........++++++++################################################++++++++........                ",
"                ........++++++++################################################++++++++........                ",
"                ........++++++++################################################++++++++........                ",
"                ........++++++++################################################++++++++........                ",
"                ........++++++++################################################++++++++........                ",
"                ........++++++++################################################++++++++........                ",
"                ........++++++++################################################++++++++........                ",
"                &&&&&&&&++++++++################################################................$$$$$$$$        ",
"                &&&&&&&&++++++++################################################................$$$$$$$$        ",
"                &&&&&&&&++++++++################################################................$$$$$$$$        ",
"                &&&&&&&&++++++++################################################................$$$$$$$$        ",
"                &&&&&&&&++++++++################################################................$$$$$$$$        ",
"                &&&&&&&&++++++++################################################................$$$$$$$$        ",
"                &&&&&&&&++++++++################################################................$$$$$$$$        ",
"                &&&&&&&&++++++++################################################................$$$$$$$$        ",
"        $$$$$$$$$$$$$$$$$$$$$$$$################################################$$$$$$$$$$$$$$$$$$$$$$$$$$$$$$$$",
"        $$$$$$$$$$$$$$$$$$$$$$$$################################################$$$$$$$$$$$$$$$$$$$$$$$$$$$$$$$$",
"        $$$$$$$$$$$$$$$$$$$$$$$$################################################$$$$$$$$$$$$$$$$$$$$$$$$$$$$$$$$",
"        $$$$$$$$$$$$$$$$$$$$$$$$################################################$$$$$$$$$$$$$$$$$$$$$$$$$$$$$$$$",
"        $$$$$$$$$$$$$$$$$$$$$$$$################################################$$$$$$$$$$$$$$$$$$$$$$$$$$$$$$$$",
"        $$$$$$$$$$$$$$$$$$$$$$$$################################################$$$$$$$$$$$$$$$$$$$$$$$$$$$$$$$$",
"        $$$$$$$$$$$$$$$$$$$$$$$$################################################$$$$$$$$$$$$$$$$$$$$$$$$$$$$$$$$",
"        $$$$$$$$$$$$$$$$$$$$$$$$################################################$$$$$$$$$$$$$$$$$$$$$$$$$$$$$$$$",
"$$$$$$$$$$$$$$$$$$$$$$$$********$$$$$$$$################################$$$$$$$$========********$$$$$$$$$$$$$$$$",
"$$$$$$$$$$$$$$$$$$$$$$$$********$$$$$$$$################################$$$$$$$$========********$$$$$$$$$$$$$$$$",
"$$$$$$$$$$$$$$$$$$$$$$$$********$$$$$$$$################################$$$$$$$$========********$$$$$$$$$$$$$$$$",
"$$$$$$$$$$$$$$$$$$$$$$$$********$$$$$$$$################################$$$$$$$$========********$$$$$$$$$$$$$$$$",
"$$$$$$$$$$$$$$$$$$$$$$$$********$$$$$$$$################################$$$$$$$$========********$$$$$$$$$$$$$$$$",
"$$$$$$$$$$$$$$$$$$$$$$$$********$$$$$$$$################################$$$$$$$$========********$$$$$$$$$$$$$$$$",
"$$$$$$$$$$$$$$$$$$$$$$$$********$$$$$$$$################################$$$$$$$$========********$$$$$$$$$$$$$$$$",
"$$$$$$$$$$$$$$$$$$$$$$$$********$$$$$$$$################################$$$$$$$$========********$$$$$$$$$$$$$$$$",
"$$$$$$$$$$$$$$$$$$$$$$$$$$$$$$$$--------$$$$$$$$########################$$$$$$$$$$$$$$$$$$$$$$$$$$$$$$$$$$$$$$$$",
"$$$$$$$$$$$$$$$$$$$$$$$$$$$$$$$$--------$$$$$$$$########################$$$$$$$$$$$$$$$$$$$$$$$$$$$$$$$$$$$$$$$$",
"$$$$$$$$$$$$$$$$$$$$$$$$$$$$$$$$--------$$$$$$$$########################$$$$$$$$$$$$$$$$$$$$$$$$$$$$$$$$$$$$$$$$",
"$$$$$$$$$$$$$$$$$$$$$$$$$$$$$$$$--------$$$$$$$$########################$$$$$$$$$$$$$$$$$$$$$$$$$$$$$$$$$$$$$$$$",
"$$$$$$$$$$$$$$$$$$$$$$$$$$$$$$$$--------$$$$$$$$########################$$$$$$$$$$$$$$$$$$$$$$$$$$$$$$$$$$$$$$$$",
"$$$$$$$$$$$$$$$$$$$$$$$$$$$$$$$$--------$$$$$$$$########################$$$$$$$$$$$$$$$$$$$$$$$$$$$$$$$$$$$$$$$$",
"$$$$$$$$$$$$$$$$$$$$$$$$$$$$$$$$--------$$$$$$$$########################$$$$$$$$$$$$$$$$$$$$$$$$$$$$$$$$$$$$$$$$",
"$$$$$$$$$$$$$$$$$$$$$$$$$$$$$$$$--------$$$$$$$$########################$$$$$$$$$$$$$$$$$$$$$$$$$$$$$$$$$$$$$$$$",
"$$$$$$$$$$$$$$$$$$$$$$$$$$$$$$$$$$$$$$$$$$$$$$$$........................$$$$$$$$$$$$$$$$$$$$$$$$$$$$$$$$        ",
"$$$$$$$$$$$$$$$$$$$$$$$$$$$$$$$$$$$$$$$$$$$$$$$$........................$$$$$$$$$$$$$$$$$$$$$$$$$$$$$$$$        ",
"$$$$$$$$$$$$$$$$$$$$$$$$$$$$$$$$$$$$$$$$$$$$$$$$........................$$$$$$$$$$$$$$$$$$$$$$$$$$$$$$$$        ",
"$$$$$$$$$$$$$$$$$$$$$$$$$$$$$$$$$$$$$$$$$$$$$$$$........................$$$$$$$$$$$$$$$$$$$$$$$$$$$$$$$$        ",
"$$$$$$$$$$$$$$$$$$$$$$$$$$$$$$$$$$$$$$$$$$$$$$$$........................$$$$$$$$$$$$$$$$$$$$$$$$$$$$$$$$        ",
"$$$$$$$$$$$$$$$$$$$$$$$$$$$$$$$$$$$$$$$$$$$$$$$$........................$$$$$$$$$$$$$$$$$$$$$$$$$$$$$$$$        ",
"$$$$$$$$$$$$$$$$$$$$$$$$$$$$$$$$$$$$$$$$$$$$$$$$........................$$$$$$$$$$$$$$$$$$$$$$$$$$$$$$$$        ",
"$$$$$$$$$$$$$$$$$$$$$$$$$$$$$$$$$$$$$$$$$$$$$$$$........................$$$$$$$$$$$$$$$$$$$$$$$$$$$$$$$$        ",
"        $$$$$$$$$$$$$$$$$$$$$$$$$$$$$$$$$$$$$$$$                        $$$$$$$$$$$$$$$$$$$$$$$$                ",
"        $$$$$$$$$$$$$$$$$$$$$$$$$$$$$$$$$$$$$$$$                        $$$$$$$$$$$$$$$$$$$$$$$$                ",
"        $$$$$$$$$$$$$$$$$$$$$$$$$$$$$$$$$$$$$$$$                        $$$$$$$$$$$$$$$$$$$$$$$$                ",
"        $$$$$$$$$$$$$$$$$$$$$$$$$$$$$$$$$$$$$$$$                        $$$$$$$$$$$$$$$$$$$$$$$$                ",
"        $$$$$$$$$$$$$$$$$$$$$$$$$$$$$$$$$$$$$$$$                        $$$$$$$$$$$$$$$$$$$$$$$$                ",
"        $$$$$$$$$$$$$$$$$$$$$$$$$$$$$$$$$$$$$$$$                        $$$$$$$$$$$$$$$$$$$$$$$$                ",
"        $$$$$$$$$$$$$$$$$$$$$$$$$$$$$$$$$$$$$$$$                        $$$$$$$$$$$$$$$$$$$$$$$$                ",
"        $$$$$$$$$$$$$$$$$$$$$$$$$$$$$$$$$$$$$$$$                        $$$$$$$$$$$$$$$$$$$$$$$$                "};
